P3
# CREATOR: GIMP PNM Filter Version 1.1
16 16
255
147
78
60
151
80
62
120
64
49
93
49
38
255
255
255
239
239
239
127
67
52
144
76
59
148
79
61
162
86
67
144
76
59
169
90
70
148
79
61
255
255
255
220
220
220
191
119
100
176
94
73
128
68
53
108
58
45
145
77
60
231
231
231
210
210
210
182
100
79
162
86
67
124
66
51
186
107
88
169
90
70
178
94
73
157
83
64
200
200
200
244
244
244
144
76
59
184
105
85
182
100
79
184
104
83
181
97
76
180
180
180
250
250
250
175
93
72
176
94
73
162
86
67
191
120
102
162
86
67
131
70
54
99
52
40
240
240
240
213
213
213
158
84
65
254
254
254
255
255
255
251
251
251
219
219
219
255
255
255
244
244
244
200
200
200
184
184
184
255
255
255
255
255
255
255
255
255
227
227
227
188
188
188
171
171
171
228
228
228
255
255
255
255
255
255
175
175
175
94
50
39
145
77
60
118
63
49
176
94
73
127
67
52
100
53
41
221
221
221
252
252
252
167
88
69
175
93
72
113
60
46
133
70
54
137
73
56
183
102
82
255
255
255
254
254
254
155
82
64
187
110
90
128
68
53
127
67
52
128
68
53
181
99
78
218
218
218
211
211
211
147
78
60
155
82
64
172
91
71
128
68
53
128
68
53
94
50
39
211
211
211
168
168
168
142
76
59
147
78
60
93
49
38
188
112
93
117
62
48
113
60
46
221
221
221
255
255
255
172
91
71
158
84
65
133
70
54
158
84
65
155
82
64
155
82
64
246
246
246
187
187
187
255
255
255
224
224
224
231
231
231
171
171
171
227
227
227
241
241
241
180
180
180
249
249
249
239
239
239
255
255
255
255
255
255
215
215
215
255
255
255
227
227
227
169
90
70
184
104
83
127
67
52
196
130
113
255
255
255
255
255
255
152
81
63
145
77
60
183
101
80
133
70
54
172
91
71
186
109
89
241
241
241
254
254
254
167
88
69
171
91
70
106
56
43
181
97
76
138
73
57
90
48
37
255
255
255
180
180
180
135
72
56
137
73
56
128
68
53
181
99
78
114
61
47
199
136
120
202
202
202
217
217
217
171
91
70
188
114
95
107
57
44
118
63
49
113
60
46
180
96
75
236
236
236
214
214
214
127
67
52
93
61
51
81
53
45
134
71
55
193
124
106
182
100
79
255
255
255
255
255
255
151
80
62
118
63
49
246
246
246
253
253
253
198
198
198
225
225
225
221
221
221
206
206
206
154
154
154
208
208
208
208
208
208
161
161
161
227
227
227
255
255
255
255
255
255
255
255
255
169
169
169
238
238
238
221
221
221
252
252
252
175
93
72
151
80
62
176
94
73
127
67
52
137
73
56
176
94
73
162
162
162
225
225
225
144
76
59
162
86
67
151
80
62
151
80
62
157
83
64
151
80
62
218
218
218
211
211
211
133
70
54
186
107
88
158
84
65
117
62
48
133
70
54
89
47
36
217
217
217
194
194
194
108
58
45
121
64
50
167
88
69
84
45
35
113
60
46
147
78
60
221
221
221
255
255
255
169
90
70
167
88
69
155
82
64
161
85
66
87
46
36
151
80
62
215
215
215
224
224
224
134
71
55
178
94
73
147
78
60
151
80
62
121
64
50
84
45
35
255
255
255
242
242
242
225
225
225
171
171
171
207
207
207
247
247
247
184
184
184
255
255
255
255
255
255
255
255
255
239
239
239
232
232
232
234
234
234
255
255
255
255
255
255
255
255
255
