P3
# CREATOR: GIMP PNM Filter Version 1.1
16 16
255
118
97
67
131
108
75
137
113
78
144
119
82
119
98
68
147
121
84
140
116
80
113
93
64
122
101
69
134
110
76
144
119
82
116
96
66
137
113
78
155
128
88
133
110
76
137
113
78
132
109
75
138
114
79
132
109
75
147
121
84
109
90
62
149
123
85
111
92
63
134
111
76
142
117
81
127
105
73
128
105
73
126
104
72
122
101
69
135
111
77
129
106
73
140
115
80
154
127
88
113
93
64
137
113
78
148
122
84
128
106
73
111
91
63
117
97
67
129
106
74
139
115
79
140
115
79
144
118
82
148
122
84
166
137
95
138
114
79
134
110
76
140
115
80
124
102
70
149
123
85
123
101
70
122
101
70
118
97
67
134
111
77
120
99
68
109
90
62
171
141
97
121
100
69
139
114
79
135
111
77
149
123
85
139
115
79
132
109
75
128
105
73
157
130
90
138
114
79
123
102
70
134
111
77
154
127
88
136
112
77
137
113
78
138
114
78
133
110
76
144
119
82
139
115
79
132
109
75
131
108
74
128
106
73
158
130
90
125
103
71
144
119
82
143
118
81
147
121
83
161
133
92
147
121
84
146
120
83
132
108
75
139
114
79
143
118
82
116
96
66
141
116
80
127
104
72
124
103
71
144
119
82
118
97
67
132
109
75
147
121
83
128
106
73
152
125
86
130
107
74
130
107
74
129
107
74
143
118
82
129
106
73
142
117
81
154
127
88
143
118
82
141
117
80
125
103
71
149
123
85
148
122
84
136
112
77
146
120
83
141
116
80
151
125
86
154
127
87
131
108
75
123
101
70
119
98
68
122
100
69
133
110
76
120
99
68
129
107
74
147
122
84
143
118
81
133
110
76
133
109
76
137
113
78
144
119
82
137
113
78
170
140
97
130
107
74
163
135
93
131
108
75
98
81
56
134
110
76
151
125
86
146
120
83
161
133
92
162
134
92
141
116
80
152
125
86
139
115
79
136
112
77
133
109
75
152
125
86
141
116
80
122
100
69
138
114
79
159
131
90
147
121
84
140
115
79
145
120
83
141
116
80
141
116
80
129
107
74
140
115
80
150
124
85
113
94
65
139
115
79
115
95
66
144
118
82
133
110
76
125
103
71
139
115
79
122
101
69
128
106
73
159
131
91
151
124
86
157
130
89
117
96
67
140
115
80
118
97
67
118
97
67
132
109
75
139
114
79
122
100
69
149
123
85
127
105
72
133
110
76
136
112
77
115
95
66
130
107
74
145
120
83
131
108
75
117
96
67
121
100
69
143
118
81
126
104
72
141
116
80
130
107
74
105
86
60
133
110
76
153
126
87
127
105
72
164
135
93
148
122
85
134
110
76
163
135
93
121
100
69
107
89
61
134
111
76
130
108
74
160
132
91
125
103
71
158
130
90
131
108
75
132
109
75
139
115
79
118
98
67
138
114
79
144
119
82
123
102
70
146
121
83
147
121
84
135
112
77
118
98
67
129
107
74
139
115
79
139
115
79
137
113
78
153
126
87
137
113
78
136
112
78
142
117
81
127
105
72
130
107
74
135
111
77
120
99
68
120
99
69
130
107
74
153
127
87
142
117
81
158
131
90
116
95
66
110
90
62
133
109
76
150
123
85
152
126
87
131
108
75
127
104
72
147
121
84
139
114
79
144
118
82
152
126
87
153
127
87
137
113
78
143
118
82
120
99
68
116
96
66
144
119
82
119
98
68
156
129
89
142
117
81
133
109
75
138
113
78
