P3
# CREATOR: GIMP PNM Filter Version 1.1
16 16
255
166
105
36
166
105
36
166
105
36
166
105
36
166
105
36
166
105
36
166
105
36
166
105
36
166
105
36
166
105
36
166
105
36
166
105
36
166
105
36
166
105
36
166
105
36
166
105
36
166
105
36
181
151
30
255
224
101
255
224
101
255
224
101
255
224
101
255
224
101
255
224
101
255
224
101
255
224
101
255
224
101
255
224
101
255
224
101
255
224
101
166
137
22
166
105
36
166
105
36
255
224
101
181
151
30
255
224
101
255
224
101
255
224
101
255
224
101
255
224
101
255
224
101
255
224
101
255
224
101
255
224
101
255
224
101
166
137
22
221
189
60
166
105
36
166
105
36
255
224
101
255
224
101
181
151
30
181
151
30
181
151
30
181
151
30
181
151
30
181
151
30
181
151
30
181
151
30
181
151
30
166
137
22
221
189
60
221
189
60
166
105
36
166
105
36
255
224
101
255
224
101
181
151
30
253
208
30
253
208
30
253
208
30
253
208
30
253
208
30
253
208
30
253
208
30
253
208
30
166
137
22
221
189
60
221
189
60
166
105
36
166
105
36
255
224
101
255
224
101
181
151
30
253
208
30
253
208
30
253
208
30
253
208
30
253
208
30
253
208
30
253
208
30
253
208
30
166
137
22
221
189
60
221
189
60
166
105
36
166
105
36
255
224
101
255
224
101
181
151
30
253
208
30
253
208
30
253
208
30
253
208
30
253
208
30
253
208
30
253
208
30
253
208
30
166
137
22
221
189
60
221
189
60
166
105
36
166
105
36
255
224
101
255
224
101
181
151
30
253
208
30
253
208
30
253
208
30
253
208
30
253
208
30
253
208
30
253
208
30
253
208
30
166
137
22
221
189
60
221
189
60
166
105
36
166
105
36
255
224
101
255
224
101
181
151
30
253
208
30
253
208
30
253
208
30
253
208
30
253
208
30
253
208
30
253
208
30
253
208
30
166
137
22
221
189
60
221
189
60
166
105
36
166
105
36
255
224
101
255
224
101
181
151
30
253
208
30
253
208
30
253
208
30
253
208
30
253
208
30
253
208
30
253
208
30
253
208
30
166
137
22
221
189
60
221
189
60
166
105
36
166
105
36
255
224
101
255
224
101
181
151
30
253
208
30
253
208
30
253
208
30
253
208
30
253
208
30
253
208
30
253
208
30
253
208
30
166
137
22
221
189
60
221
189
60
166
105
36
166
105
36
255
224
101
255
224
101
181
151
30
253
208
30
253
208
30
253
208
30
253
208
30
253
208
30
253
208
30
253
208
30
253
208
30
166
137
22
221
189
60
221
189
60
166
105
36
166
105
36
255
224
101
255
224
101
166
137
22
166
137
22
166
137
22
166
137
22
166
137
22
166
137
22
166
137
22
166
137
22
166
137
22
166
137
22
221
189
60
221
189
60
166
105
36
166
105
36
255
224
101
166
137
22
221
189
60
221
189
60
221
189
60
221
189
60
221
189
60
221
189
60
221
189
60
221
189
60
221
189
60
221
189
60
166
137
22
221
189
60
166
105
36
166
105
36
166
137
22
221
189
60
221
189
60
221
189
60
221
189
60
221
189
60
221
189
60
221
189
60
221
189
60
221
189
60
221
189
60
221
189
60
221
189
60
166
137
22
166
105
36
166
105
36
166
105
36
166
105
36
166
105
36
166
105
36
166
105
36
166
105
36
166
105
36
166
105
36
166
105
36
166
105
36
166
105
36
166
105
36
166
105
36
166
105
36
166
105
36
