P3
# CREATOR: GIMP PNM Filter Version 1.1
16 16
255
243
217
168
209
172
99
209
172
99
122
95
44
243
217
168
209
172
99
209
172
99
122
95
44
243
217
168
209
172
99
209
172
99
122
95
44
243
217
168
209
172
99
209
172
99
122
95
44
243
217
168
209
172
99
209
172
99
122
95
44
243
217
168
209
172
99
209
172
99
122
95
44
243
217
168
209
172
99
209
172
99
122
95
44
243
217
168
209
172
99
209
172
99
122
95
44
243
217
168
209
172
99
209
172
99
122
95
44
243
217
168
209
172
99
209
172
99
122
95
44
243
217
168
209
172
99
209
172
99
122
95
44
243
217
168
209
172
99
209
172
99
122
95
44
243
217
168
209
172
99
209
172
99
122
95
44
243
217
168
209
172
99
209
172
99
122
95
44
243
217
168
209
172
99
209
172
99
122
95
44
243
217
168
209
172
99
209
172
99
122
95
44
243
217
168
209
172
99
209
172
99
122
95
44
122
95
44
122
95
44
122
95
44
122
95
44
243
217
168
209
172
99
209
172
99
122
95
44
122
95
44
122
95
44
122
95
44
122
95
44
243
217
168
209
172
99
209
172
99
122
95
44
243
217
168
243
217
168
243
217
168
122
95
44
243
217
168
209
172
99
209
172
99
122
95
44
243
217
168
243
217
168
243
217
168
122
95
44
243
217
168
209
172
99
209
172
99
122
95
44
243
217
168
209
172
99
209
172
99
122
95
44
243
217
168
209
172
99
209
172
99
122
95
44
243
217
168
209
172
99
209
172
99
122
95
44
243
217
168
209
172
99
209
172
99
122
95
44
243
217
168
209
172
99
209
172
99
122
95
44
243
217
168
209
172
99
209
172
99
122
95
44
243
217
168
209
172
99
209
172
99
122
95
44
243
217
168
209
172
99
209
172
99
122
95
44
243
217
168
209
172
99
209
172
99
122
95
44
243
217
168
209
172
99
209
172
99
122
95
44
243
217
168
209
172
99
209
172
99
122
95
44
243
217
168
209
172
99
209
172
99
122
95
44
243
217
168
209
172
99
209
172
99
122
95
44
243
217
168
209
172
99
209
172
99
122
95
44
243
217
168
209
172
99
209
172
99
122
95
44
243
217
168
209
172
99
209
172
99
122
95
44
243
217
168
209
172
99
209
172
99
122
95
44
243
217
168
209
172
99
209
172
99
122
95
44
243
217
168
209
172
99
209
172
99
122
95
44
122
95
44
122
95
44
122
95
44
122
95
44
243
217
168
209
172
99
209
172
99
122
95
44
122
95
44
122
95
44
122
95
44
122
95
44
243
217
168
209
172
99
209
172
99
122
95
44
243
217
168
243
217
168
243
217
168
122
95
44
243
217
168
209
172
99
209
172
99
122
95
44
243
217
168
243
217
168
243
217
168
122
95
44
243
217
168
209
172
99
209
172
99
122
95
44
243
217
168
209
172
99
209
172
99
122
95
44
243
217
168
209
172
99
209
172
99
122
95
44
243
217
168
209
172
99
209
172
99
122
95
44
243
217
168
209
172
99
209
172
99
122
95
44
243
217
168
209
172
99
209
172
99
122
95
44
243
217
168
209
172
99
209
172
99
122
95
44
243
217
168
209
172
99
209
172
99
122
95
44
243
217
168
209
172
99
209
172
99
122
95
44
243
217
168
209
172
99
209
172
99
122
95
44
243
217
168
209
172
99
209
172
99
122
95
44
243
217
168
209
172
99
209
172
99
122
95
44
243
217
168
209
172
99
209
172
99
122
95
44
