P3
# CREATOR: GIMP PNM Filter Version 1.1
16 16
255
255
255
255
255
255
255
255
255
255
255
255
255
255
255
255
255
255
255
255
255
255
174
174
174
255
255
255
255
255
255
255
255
255
255
255
255
255
255
255
255
255
255
249
249
249
174
174
174
255
255
255
239
239
239
239
239
239
239
239
239
239
239
239
239
239
239
239
239
239
174
174
174
255
255
255
239
239
239
239
239
239
239
239
239
239
239
239
239
239
239
239
239
239
174
174
174
255
255
255
239
239
239
239
239
239
239
239
239
239
239
239
239
239
239
239
239
239
174
174
174
255
255
255
239
239
239
239
239
239
239
239
239
239
239
239
239
239
239
239
239
239
174
174
174
255
255
255
239
239
239
239
239
239
239
239
239
239
239
239
239
239
239
239
239
239
174
174
174
255
255
255
239
239
239
239
239
239
239
239
239
239
239
239
239
239
239
239
239
239
174
174
174
255
255
255
239
239
239
239
239
239
239
239
239
239
239
239
239
239
239
239
239
239
174
174
174
255
255
255
239
239
239
239
239
239
239
239
239
239
239
239
239
239
239
239
239
239
174
174
174
255
255
255
239
239
239
239
239
239
239
239
239
239
239
239
239
239
239
239
239
239
174
174
174
255
255
255
239
239
239
239
239
239
239
239
239
239
239
239
239
239
239
239
239
239
174
174
174
255
255
255
239
239
239
239
239
239
239
239
239
239
239
239
239
239
239
239
239
239
174
174
174
255
255
255
239
239
239
239
239
239
239
239
239
239
239
239
239
239
239
239
239
239
174
174
174
174
174
174
174
174
174
174
174
174
174
174
174
174
174
174
174
174
174
174
174
174
174
174
174
174
174
174
174
174
174
174
174
174
174
174
174
174
174
174
174
174
174
174
174
174
174
174
174
255
255
255
255
255
255
255
255
255
255
255
255
255
255
255
255
255
255
255
255
255
174
174
174
255
255
255
255
255
255
255
255
255
255
255
255
255
255
255
255
255
255
255
255
255
174
174
174
255
255
255
239
239
239
239
239
239
239
239
239
239
239
239
239
239
239
239
239
239
174
174
174
255
255
255
239
239
239
239
239
239
239
239
239
239
239
239
239
239
239
239
239
239
174
174
174
255
255
255
239
239
239
239
239
239
239
239
239
239
239
239
239
239
239
239
239
239
174
174
174
255
255
255
239
239
239
239
239
239
239
239
239
239
239
239
239
239
239
239
239
239
174
174
174
255
255
255
239
239
239
239
239
239
239
239
239
239
239
239
239
239
239
239
239
239
174
174
174
255
255
255
239
239
239
239
239
239
239
239
239
239
239
239
239
239
239
239
239
239
174
174
174
255
255
255
239
239
239
239
239
239
239
239
239
239
239
239
239
239
239
239
239
239
174
174
174
255
255
255
239
239
239
239
239
239
239
239
239
239
239
239
239
239
239
239
239
239
174
174
174
255
255
255
239
239
239
239
239
239
239
239
239
239
239
239
239
239
239
239
239
239
174
174
174
255
255
255
239
239
239
239
239
239
239
239
239
239
239
239
239
239
239
239
239
239
174
174
174
255
255
255
239
239
239
239
239
239
239
239
239
239
239
239
239
239
239
239
239
239
174
174
174
255
255
255
239
239
239
239
239
239
239
239
239
239
239
239
239
239
239
239
239
239
174
174
174
174
174
174
174
174
174
174
174
174
174
174
174
174
174
174
174
174
174
174
174
174
174
174
174
174
174
174
174
174
174
174
174
174
174
174
174
174
174
174
174
174
174
174
174
174
174
174
174
