P3
# CREATOR: GIMP PNM Filter Version 1.1
16 16
255
0
30
254
15
42
245
14
41
244
15
42
245
13
40
243
13
40
243
14
41
244
15
42
245
14
41
244
14
41
244
11
38
241
14
41
244
15
42
245
14
41
244
14
41
244
11
38
241
14
41
244
0
255
6
0
255
6
0
255
6
0
255
6
0
255
6
0
255
6
0
255
6
0
255
6
0
255
6
0
255
6
0
255
6
0
255
6
0
255
6
0
255
6
241
11
11
11
38
241
0
255
6
0
25
0
0
255
6
0
25
0
0
255
6
0
25
0
0
255
6
0
25
0
0
255
6
0
25
0
0
255
6
0
25
0
0
255
6
0
255
6
240
10
10
13
40
243
0
255
6
0
255
6
0
25
0
0
255
6
0
25
0
0
255
6
0
25
0
0
255
6
0
25
0
0
255
6
0
25
0
0
255
6
0
25
0
0
255
6
244
14
14
13
40
243
0
255
6
0
25
0
0
255
6
0
25
0
0
255
6
0
25
0
0
255
6
0
25
0
0
255
6
0
25
0
0
255
6
0
25
0
0
255
6
0
255
6
242
12
12
13
40
243
0
255
6
0
255
6
0
25
0
0
255
6
0
25
0
0
255
6
0
25
0
0
255
6
0
25
0
0
255
6
0
25
0
0
255
6
0
25
0
0
255
6
240
10
10
14
41
244
0
255
6
0
25
0
0
255
6
0
25
0
0
255
6
0
25
0
0
255
6
0
25
0
0
255
6
0
25
0
0
255
6
0
25
0
0
255
6
0
255
6
240
10
10
10
37
240
0
255
6
0
255
6
0
25
0
0
255
6
0
25
0
0
255
6
0
25
0
0
255
6
0
25
0
0
255
6
0
25
0
0
255
6
0
25
0
0
255
6
238
8
8
15
42
245
0
255
6
0
25
0
0
255
6
0
25
0
0
255
6
0
25
0
0
255
6
0
25
0
0
255
6
0
25
0
0
255
6
0
25
0
0
255
6
0
255
6
246
16
16
14
41
244
0
255
6
0
255
6
0
25
0
0
255
6
0
25
0
0
255
6
0
25
0
0
255
6
0
25
0
0
255
6
0
25
0
0
255
6
0
25
0
0
255
6
244
14
14
11
38
241
0
255
6
0
25
0
0
255
6
0
25
0
0
255
6
0
25
0
0
255
6
0
25
0
0
255
6
0
25
0
0
255
6
0
25
0
0
255
6
0
255
6
239
9
9
14
41
244
0
255
6
0
255
6
0
25
0
0
255
6
0
25
0
0
255
6
0
25
0
0
255
6
0
25
0
0
255
6
0
25
0
0
255
6
0
25
0
0
255
6
240
10
10
13
40
243
0
255
6
0
25
0
0
255
6
0
25
0
0
255
6
0
25
0
0
255
6
0
25
0
0
255
6
0
25
0
0
255
6
0
25
0
0
255
6
0
255
6
240
10
10
12
39
242
0
255
6
0
255
6
0
25
0
0
255
6
0
25
0
0
255
6
0
25
0
0
255
6
0
25
0
0
255
6
0
25
0
0
255
6
0
25
0
0
255
6
243
13
13
14
41
244
0
255
6
0
255
6
0
255
6
0
255
6
0
255
6
0
255
6
0
255
6
0
255
6
0
255
6
0
255
6
0
255
6
0
255
6
0
255
6
0
255
6
243
13
13
253
0
0
240
10
10
239
9
9
240
10
10
240
10
10
240
10
10
240
10
10
238
8
8
241
11
11
240
10
10
240
10
10
240
10
10
239
9
9
240
10
10
240
10
10
253
0
0
