P3
# CREATOR: GIMP PNM Filter Version 1.1
16 16
255
179
179
179
167
167
167
198
198
198
187
187
187
70
70
70
83
83
83
81
81
81
92
92
92
76
76
76
96
96
96
86
86
86
96
96
96
124
124
124
147
147
147
172
172
172
164
164
164
182
182
182
164
164
164
191
191
191
85
85
85
79
79
79
124
124
124
173
173
173
165
165
165
202
202
202
91
91
91
93
93
93
87
87
87
89
89
89
124
124
124
152
152
152
167
167
167
181
181
181
183
183
183
88
88
88
89
89
89
115
115
115
161
161
161
159
159
159
172
172
172
180
180
180
169
169
169
191
191
191
95
95
95
86
86
86
72
72
72
124
124
124
169
169
169
87
87
87
82
82
82
90
90
90
85
85
85
124
124
124
174
174
174
163
163
163
164
164
164
174
174
174
172
172
172
194
194
194
187
187
187
98
98
98
92
92
92
82
82
82
80
80
80
87
87
87
96
96
96
102
102
102
89
89
89
106
106
106
156
156
156
177
177
177
187
187
187
156
156
156
173
173
173
168
168
168
185
185
185
74
74
74
79
79
79
72
72
72
82
82
82
178
178
178
196
196
196
86
86
86
88
88
88
106
106
106
164
164
164
173
173
173
173
173
173
166
166
166
206
206
206
183
183
183
106
106
106
90
90
90
83
83
83
82
82
82
124
124
124
150
150
150
174
174
174
189
189
189
90
90
90
92
92
92
124
124
124
144
144
144
173
173
173
158
158
158
165
165
165
94
94
94
68
68
68
76
76
76
88
88
88
124
124
124
193
193
193
179
179
179
190
190
190
188
188
188
82
82
82
80
80
80
86
86
86
75
75
75
98
98
98
91
91
91
100
100
100
89
89
89
94
94
94
87
87
87
124
124
124
166
166
166
167
167
167
153
153
153
185
185
185
75
75
75
81
81
81
101
101
101
86
86
86
124
124
124
147
147
147
170
170
170
197
197
197
76
76
76
86
86
86
82
82
82
124
124
124
171
171
171
173
173
173
200
200
200
90
90
90
79
79
79
87
87
87
88
88
88
79
79
79
124
124
124
161
161
161
161
161
161
188
188
188
76
76
76
92
92
92
88
88
88
90
90
90
81
81
81
124
124
124
74
74
74
78
78
78
97
97
97
89
89
89
84
84
84
124
124
124
157
157
157
156
156
156
174
174
174
166
166
166
186
186
186
90
90
90
84
84
84
71
71
71
79
79
79
89
89
89
182
182
182
174
174
174
76
76
76
86
86
86
82
82
82
124
124
124
174
174
174
170
170
170
170
170
170
163
163
163
189
189
189
95
95
95
79
79
79
86
86
86
124
124
124
189
189
189
164
164
164
179
179
179
190
190
190
80
80
80
95
95
95
124
124
124
161
161
161
172
172
172
164
164
164
165
165
165
176
176
176
193
193
193
93
93
93
90
90
90
124
124
124
172
172
172
163
163
163
189
189
189
163
163
163
175
175
175
80
80
80
124
124
124
172
172
172
167
167
167
161
161
161
177
177
177
168
168
168
192
192
192
70
70
70
124
124
124
168
168
168
170
170
170
182
182
182
161
161
161
192
192
192
186
186
186
70
70
70
92
92
92
124
124
124
177
177
177
153
153
153
159
159
159
182
182
182
96
96
96
81
81
81
124
124
124
194
194
194
161
161
161
167
167
167
145
145
145
162
162
162
189
189
189
82
82
82
82
82
82
73
73
73
84
84
84
92
92
92
93
93
93
73
73
73
88
88
88
81
81
81
124
124
124
158
158
158
176
176
176
